<svg width="185" height="190" viewBox="0 0 185 190" fill="none" xmlns="http://www.w3.org/2000/svg">
<path d="M89.9498 1.51213C91.5221 0.579833 93.4779 0.57983 95.0502 1.51213L170.158 46.0474C171.676 46.9479 172.607 48.5826 172.607 50.3481V139.652C172.607 141.417 171.676 143.052 170.158 143.953L95.0502 188.488C93.4779 189.42 91.5221 189.42 89.9498 188.488L14.8425 143.953C13.3238 143.052 12.3926 141.417 12.3926 139.652V50.3481C12.3926 48.5826 13.3238 46.9479 14.8425 46.0474L89.9498 1.51213Z" fill="#59606D"/>
<path d="M90.1654 102.233C91.6262 101.461 93.3737 101.461 94.8346 102.233L146.626 129.578C150.18 131.455 150.18 136.545 146.626 138.422L94.8346 165.767C93.3738 166.539 91.6263 166.539 90.1654 165.767L38.3741 138.422C34.8202 136.545 34.8202 131.455 38.3741 129.578L90.1654 102.233Z" fill="#8FA9AA"/>
<path d="M89.9407 19.5249C91.5176 18.5854 93.4824 18.5854 95.0593 19.5249L144.186 48.7958C145.699 49.6975 146.627 51.3293 146.627 53.0911V111.909C146.627 113.671 145.699 115.302 144.186 116.204L95.0593 145.475C93.4824 146.415 91.5176 146.415 89.9407 145.475L40.8141 116.204C39.3006 115.302 38.3734 113.671 38.3734 111.909V53.0911C38.3734 51.3293 39.3006 49.6975 40.8141 48.7958L89.9407 19.5249Z" fill="#809398"/>
<mask id="mask0_13968:11" style="mask-type:alpha" maskUnits="userSpaceOnUse" x="30" y="18" width="62" height="129">
<rect x="30" y="18" width="62" height="129" fill="#6F7C85"/>
</mask>
<g mask="url(#mask0_13968:11)">
<path d="M89.9407 19.5249C91.5176 18.5854 93.4824 18.5854 95.0593 19.5249L144.186 48.7958C145.699 49.6975 146.627 51.3293 146.627 53.0911V111.909C146.627 113.671 145.699 115.302 144.186 116.204L95.0593 145.475C93.4824 146.415 91.5176 146.415 89.9407 145.475L40.8141 116.204C39.3006 115.302 38.3734 113.671 38.3734 111.909V53.0911C38.3734 51.3293 39.3006 49.6975 40.8141 48.7958L89.9407 19.5249Z" fill="#6F7C85"/>
</g>
<path d="M91.2111 100.894C92.3373 100.331 93.6627 100.331 94.7889 100.894L133.845 120.422C136.793 121.896 136.793 126.104 133.845 127.578L94.7889 147.106C93.6627 147.669 92.3373 147.669 91.2111 147.106L52.1554 127.578C49.2072 126.104 49.2072 121.896 52.1554 120.422L91.2111 100.894Z" fill="#97B3B2"/>
<mask id="mask1_13968:11" style="mask-type:alpha" maskUnits="userSpaceOnUse" x="44" y="100" width="48" height="48">
<rect x="44" y="100" width="48" height="48" fill="#9CB9B8"/>
</mask>
<g mask="url(#mask1_13968:11)">
<path d="M90.2111 100.894C91.3373 100.331 92.6627 100.331 93.7889 100.894L132.845 120.422C135.793 121.896 135.793 126.104 132.845 127.578L93.7889 147.106C92.6627 147.669 91.3373 147.669 90.2111 147.106L51.1554 127.578C48.2072 126.104 48.2072 121.896 51.1554 120.422L90.2111 100.894Z" fill="#9CB9B8"/>
</g>
</svg>
